<svg xmlns="http://www.w3.org/2000/svg" xmlns:xlink="http://www.w3.org/1999/xlink" width="500" zoomAndPan="magnify" viewBox="0 0 375 374.999991" height="500" preserveAspectRatio="xMidYMid meet" version="1.0"><defs><g/><clipPath id="180b1ac539"><path d="M 23.210938 22.867188 L 352.460938 22.867188 L 352.460938 351.367188 L 23.210938 351.367188 Z M 23.210938 22.867188 " clip-rule="nonzero"/></clipPath><clipPath id="2276e237bd"><path d="M 21.054688 21.054688 L 354.054688 21.054688 L 354.054688 354.054688 L 21.054688 354.054688 Z M 21.054688 21.054688 " clip-rule="nonzero"/></clipPath><clipPath id="dc9446e0af"><path d="M 49.375 165.523438 L 59.125 165.523438 L 59.125 175.273438 L 49.375 175.273438 Z M 49.375 165.523438 " clip-rule="nonzero"/></clipPath><clipPath id="9359114c83"><path d="M 322.210938 165.523438 L 331.960938 165.523438 L 331.960938 175.273438 L 322.210938 175.273438 Z M 322.210938 165.523438 " clip-rule="nonzero"/></clipPath><clipPath id="4723018d87"><path d="M 113.171875 120.28125 L 261.671875 120.28125 L 261.671875 253.78125 L 113.171875 253.78125 Z M 113.171875 120.28125 " clip-rule="nonzero"/></clipPath></defs><g clip-path="url(#180b1ac539)"><path fill="#19191e" d="M 187.835938 22.867188 C 96.914062 22.867188 23.210938 96.40625 23.210938 187.117188 C 23.210938 277.832031 96.914062 351.367188 187.835938 351.367188 C 278.753906 351.367188 352.460938 277.832031 352.460938 187.117188 C 352.460938 96.40625 278.753906 22.867188 187.835938 22.867188 " fill-opacity="1" fill-rule="nonzero"/></g><g clip-path="url(#2276e237bd)"><path fill="#ad974f" d="M 343.753906 231.949219 C 339.53125 246.324219 333.085938 259.957031 325.085938 272.515625 C 318.484375 282.738281 310.972656 292.34375 302.535156 301.078125 C 301.445312 302.273438 300.226562 303.339844 299.066406 304.46875 C 297.890625 305.574219 296.746094 306.71875 295.542969 307.796875 L 291.886719 310.976562 L 290.054688 312.570312 L 288.160156 314.078125 L 284.371094 317.101562 C 283.085938 318.085938 281.761719 319.011719 280.464844 319.972656 C 277.894531 321.9375 275.160156 323.667969 272.484375 325.488281 C 272.097656 325.75 271.695312 326.019531 271.269531 326.304688 C 270.835938 326.566406 270.382812 326.835938 269.910156 327.121094 C 268.964844 327.6875 267.949219 328.292969 266.867188 328.941406 C 264.730469 330.285156 262.199219 331.546875 259.46875 333 C 258.78125 333.355469 258.09375 333.742188 257.367188 334.089844 C 256.636719 334.429688 255.894531 334.773438 255.132812 335.125 C 253.617188 335.828125 252.042969 336.554688 250.421875 337.304688 C 247.09375 338.605469 243.625 340.164062 239.839844 341.378906 C 224.902344 346.792969 206.261719 350.140625 187.554688 350.21875 C 168.847656 350.140625 150.207031 346.792969 135.269531 341.378906 C 131.484375 340.164062 128.015625 338.605469 124.6875 337.304688 C 123.066406 336.554688 121.496094 335.828125 119.976562 335.125 C 119.21875 334.773438 118.472656 334.429688 117.742188 334.089844 C 117.015625 333.742188 116.328125 333.355469 115.640625 333 C 112.910156 331.550781 110.378906 330.285156 108.242188 328.941406 C 107.160156 328.292969 106.144531 327.6875 105.203125 327.121094 C 104.730469 326.839844 104.277344 326.566406 103.839844 326.304688 C 103.417969 326.019531 103.011719 325.75 102.625 325.488281 C 92.464844 318.828125 82.914062 311.261719 74.238281 302.765625 C 65.082031 293.621094 57.082031 283.378906 50.023438 272.519531 C 42.023438 259.960938 35.578125 246.324219 31.355469 231.949219 C 26.960938 217.625 24.929688 202.589844 24.796875 187.554688 C 24.929688 172.519531 26.960938 157.484375 31.355469 143.160156 C 35.578125 128.785156 42.023438 115.152344 50.023438 102.59375 C 56.625 92.371094 64.136719 82.765625 72.574219 74.03125 C 73.664062 72.835938 74.882812 71.769531 76.039062 70.640625 C 77.21875 69.535156 78.363281 68.390625 79.566406 67.3125 L 83.222656 64.132812 L 85.054688 62.539062 L 86.949219 61.03125 L 90.738281 58.007812 C 92.023438 57.023438 93.347656 56.097656 94.644531 55.136719 C 97.214844 53.171875 99.949219 51.441406 102.625 49.621094 C 103.011719 49.359375 103.414062 49.089844 103.835938 48.804688 C 104.273438 48.542969 104.726562 48.273438 105.199219 47.988281 C 106.144531 47.421875 107.160156 46.816406 108.242188 46.167969 C 110.378906 44.824219 112.910156 43.5625 115.640625 42.109375 C 116.328125 41.753906 117.015625 41.367188 117.742188 41.019531 C 118.472656 40.679688 119.214844 40.335938 119.976562 39.984375 C 121.492188 39.28125 123.066406 38.554688 124.6875 37.804688 C 128.015625 36.503906 131.484375 34.945312 135.269531 33.730469 C 150.207031 28.316406 168.847656 24.96875 187.554688 24.890625 C 206.261719 24.96875 224.902344 28.316406 239.839844 33.730469 C 243.625 34.945312 247.09375 36.503906 250.421875 37.804688 C 252.042969 38.554688 253.613281 39.28125 255.132812 39.984375 C 255.890625 40.335938 256.636719 40.679688 257.367188 41.019531 C 258.09375 41.367188 258.78125 41.753906 259.46875 42.109375 C 262.199219 43.558594 264.730469 44.824219 266.867188 46.167969 C 267.949219 46.816406 268.964844 47.421875 269.90625 47.988281 C 270.378906 48.269531 270.832031 48.542969 271.269531 48.804688 C 271.691406 49.089844 272.097656 49.359375 272.484375 49.621094 C 282.644531 56.28125 292.195312 63.847656 300.871094 72.34375 C 310.027344 81.488281 318.027344 91.730469 325.085938 102.589844 C 333.085938 115.148438 339.53125 128.785156 343.753906 143.160156 C 348.148438 157.484375 350.179688 172.519531 350.3125 187.554688 C 350.179688 202.589844 348.148438 217.625 343.753906 231.949219 Z M 354.054688 187.445312 L 354.050781 187.429688 C 353.914062 172.078125 351.847656 156.71875 347.375 142.070312 C 343.074219 127.378906 336.488281 113.429688 328.273438 100.621094 L 324.324219 94.6875 C 324.324219 94.6875 323.183594 93.09375 321.472656 90.699219 C 319.824219 88.253906 317.300781 85.246094 314.894531 82.148438 C 312.296875 79.207031 309.808594 76.175781 307.714844 74.105469 C 305.683594 71.980469 304.328125 70.566406 304.328125 70.566406 C 304.328125 70.566406 303.984375 70.214844 303.367188 69.621094 C 302.75 69.027344 301.867188 68.175781 300.8125 67.15625 C 298.75 65.054688 295.753906 62.523438 292.820312 59.925781 C 291.3125 58.671875 289.761719 57.472656 288.328125 56.320312 C 287.609375 55.75 286.914062 55.195312 286.253906 54.671875 C 285.574219 54.179688 284.925781 53.714844 284.328125 53.285156 C 281.945312 51.5625 280.355469 50.414062 280.355469 50.414062 C 280.355469 50.414062 280.007812 50.132812 279.449219 49.769531 C 278.894531 49.402344 278.15625 48.90625 277.417969 48.410156 C 275.9375 47.421875 274.457031 46.429688 274.457031 46.429688 C 274.0625 46.164062 273.648438 45.882812 273.21875 45.59375 C 272.773438 45.324219 272.308594 45.042969 271.828125 44.75 C 270.859375 44.171875 269.820312 43.546875 268.71875 42.882812 C 266.53125 41.507812 263.945312 40.207031 261.152344 38.71875 C 260.449219 38.351562 259.746094 37.957031 259.003906 37.601562 C 258.257812 37.25 257.492188 36.898438 256.71875 36.535156 C 255.167969 35.816406 253.554688 35.070312 251.894531 34.300781 C 248.492188 32.964844 244.941406 31.367188 241.070312 30.121094 C 225.785156 24.570312 206.695312 21.128906 187.554688 21.054688 C 168.414062 21.128906 149.324219 24.570312 134.039062 30.125 C 130.167969 31.367188 126.617188 32.964844 123.210938 34.300781 C 121.550781 35.070312 119.941406 35.816406 118.390625 36.535156 C 117.613281 36.898438 116.851562 37.253906 116.105469 37.601562 C 115.363281 37.957031 114.65625 38.351562 113.953125 38.71875 C 111.160156 40.207031 108.574219 41.507812 106.390625 42.882812 C 105.285156 43.546875 104.246094 44.171875 103.28125 44.75 C 102.800781 45.042969 102.335938 45.324219 101.890625 45.59375 C 101.457031 45.886719 101.046875 46.164062 100.648438 46.429688 C 100.648438 46.429688 99.171875 47.421875 97.691406 48.410156 C 96.953125 48.90625 96.214844 49.402344 95.660156 49.773438 C 95.101562 50.132812 94.753906 50.414062 94.753906 50.414062 C 94.753906 50.414062 93.164062 51.5625 90.78125 53.285156 C 90.183594 53.714844 89.535156 54.179688 88.855469 54.671875 C 88.195312 55.195312 87.5 55.75 86.78125 56.320312 C 85.347656 57.472656 83.796875 58.671875 82.289062 59.925781 C 79.355469 62.523438 76.359375 65.054688 74.296875 67.15625 C 73.242188 68.175781 72.359375 69.027344 71.742188 69.621094 C 71.125 70.214844 70.78125 70.566406 70.78125 70.566406 C 70.78125 70.566406 69.425781 71.980469 67.394531 74.105469 C 65.300781 76.175781 62.8125 79.207031 60.214844 82.148438 C 57.808594 85.246094 55.285156 88.257812 53.636719 90.699219 C 51.925781 93.09375 50.78125 94.691406 50.78125 94.691406 L 46.835938 100.621094 C 38.621094 113.429688 32.035156 127.378906 27.734375 142.070312 C 23.261719 156.71875 21.195312 172.078125 21.058594 187.433594 L 21.054688 187.445312 L 21.054688 187.664062 L 21.058594 187.679688 C 21.195312 203.03125 23.261719 218.390625 27.734375 233.039062 C 32.035156 247.730469 38.621094 261.675781 46.835938 274.488281 L 50.785156 280.417969 C 50.785156 280.417969 51.925781 282.015625 53.636719 284.410156 C 55.285156 286.855469 57.808594 289.863281 60.214844 292.960938 C 62.8125 295.902344 65.300781 298.933594 67.394531 301.003906 C 69.425781 303.125 70.78125 304.542969 70.78125 304.542969 C 70.78125 304.542969 71.125 304.894531 71.742188 305.488281 C 72.359375 306.082031 73.242188 306.933594 74.296875 307.953125 C 76.359375 310.054688 79.355469 312.585938 82.289062 315.183594 C 83.796875 316.4375 85.347656 317.636719 86.78125 318.789062 C 87.5 319.359375 88.195312 319.914062 88.855469 320.4375 C 89.535156 320.929688 90.183594 321.394531 90.78125 321.824219 C 93.164062 323.546875 94.753906 324.695312 94.753906 324.695312 C 94.753906 324.695312 95.101562 324.976562 95.660156 325.335938 C 96.214844 325.707031 96.953125 326.203125 97.691406 326.699219 C 99.171875 327.6875 100.652344 328.679688 100.652344 328.679688 C 101.046875 328.945312 101.460938 329.226562 101.890625 329.515625 C 102.335938 329.785156 102.800781 330.066406 103.28125 330.359375 C 104.246094 330.9375 105.285156 331.5625 106.390625 332.226562 C 108.578125 333.601562 111.164062 334.902344 113.957031 336.390625 C 114.660156 336.753906 115.363281 337.152344 116.105469 337.507812 C 116.851562 337.859375 117.617188 338.210938 118.390625 338.574219 C 119.941406 339.292969 121.554688 340.039062 123.214844 340.808594 C 126.617188 342.144531 130.167969 343.738281 134.039062 344.988281 C 149.324219 350.539062 168.414062 353.976562 187.554688 354.054688 C 206.695312 353.976562 225.785156 350.539062 241.070312 344.984375 C 244.941406 343.738281 248.492188 342.144531 251.898438 340.804688 C 253.558594 340.039062 255.167969 339.292969 256.71875 338.570312 C 257.496094 338.210938 258.257812 337.855469 259.003906 337.507812 C 259.746094 337.152344 260.453125 336.753906 261.15625 336.390625 C 263.945312 334.902344 266.535156 333.601562 268.71875 332.226562 C 269.824219 331.5625 270.859375 330.9375 271.828125 330.359375 C 272.308594 330.066406 272.773438 329.785156 273.21875 329.515625 C 273.652344 329.222656 274.0625 328.945312 274.460938 328.679688 C 274.460938 328.679688 275.9375 327.6875 277.417969 326.699219 C 278.15625 326.203125 278.894531 325.707031 279.449219 325.335938 C 280.007812 324.976562 280.355469 324.695312 280.355469 324.695312 C 280.355469 324.695312 281.945312 323.546875 284.328125 321.824219 C 284.925781 321.394531 285.574219 320.929688 286.253906 320.4375 C 286.914062 319.914062 287.609375 319.359375 288.328125 318.789062 C 289.761719 317.636719 291.3125 316.4375 292.820312 315.183594 C 295.753906 312.585938 298.75 310.054688 300.8125 307.953125 C 301.867188 306.933594 302.75 306.082031 303.367188 305.488281 C 303.984375 304.894531 304.328125 304.542969 304.328125 304.542969 C 304.328125 304.542969 305.683594 303.125 307.714844 301.003906 C 309.808594 298.933594 312.296875 295.902344 314.894531 292.960938 C 317.300781 289.863281 319.824219 286.851562 321.472656 284.410156 C 323.183594 282.015625 324.324219 280.417969 324.324219 280.417969 L 328.273438 274.488281 C 336.488281 261.675781 343.074219 247.730469 347.375 233.039062 C 351.847656 218.390625 353.914062 203.03125 354.050781 187.675781 L 354.054688 187.664062 L 354.054688 187.445312 " fill-opacity="1" fill-rule="nonzero"/></g><g clip-path="url(#dc9446e0af)"><path fill="#ad974f" d="M 54.25 165.523438 C 51.554688 165.523438 49.375 167.707031 49.375 170.398438 C 49.375 173.09375 51.554688 175.273438 54.25 175.273438 C 56.941406 175.273438 59.125 173.09375 59.125 170.398438 C 59.125 167.707031 56.941406 165.523438 54.25 165.523438 " fill-opacity="1" fill-rule="nonzero"/></g><g clip-path="url(#9359114c83)"><path fill="#ad974f" d="M 327.085938 165.523438 C 324.390625 165.523438 322.210938 167.707031 322.210938 170.398438 C 322.210938 173.09375 324.390625 175.273438 327.085938 175.273438 C 329.777344 175.273438 331.960938 173.09375 331.960938 170.398438 C 331.960938 167.707031 329.777344 165.523438 327.085938 165.523438 " fill-opacity="1" fill-rule="nonzero"/></g><path fill="#8e793e" d="M 211.179688 194.449219 C 211.179688 195.226562 211.144531 196 211.066406 196.773438 C 210.992188 197.546875 210.875 198.316406 210.722656 199.078125 C 210.574219 199.839844 210.382812 200.59375 210.15625 201.339844 C 209.933594 202.082031 209.671875 202.8125 209.371094 203.53125 C 209.074219 204.25 208.742188 204.949219 208.375 205.636719 C 208.007812 206.320312 207.609375 206.988281 207.175781 207.632812 C 206.746094 208.28125 206.28125 208.902344 205.789062 209.503906 C 205.292969 210.105469 204.773438 210.679688 204.222656 211.230469 C 203.671875 211.78125 203.097656 212.300781 202.496094 212.792969 C 201.894531 213.289062 201.269531 213.75 200.621094 214.183594 C 199.976562 214.613281 199.308594 215.011719 198.621094 215.378906 C 197.9375 215.746094 197.234375 216.078125 196.515625 216.375 C 195.796875 216.671875 195.0625 216.933594 194.320312 217.160156 C 193.574219 217.386719 192.820312 217.574219 192.058594 217.726562 C 191.292969 217.878906 190.523438 217.992188 189.75 218.066406 C 188.976562 218.144531 188.199219 218.183594 187.421875 218.183594 C 186.644531 218.183594 185.867188 218.144531 185.09375 218.066406 C 184.320312 217.992188 183.550781 217.878906 182.785156 217.726562 C 182.023438 217.574219 181.269531 217.386719 180.523438 217.160156 C 179.78125 216.933594 179.046875 216.671875 178.328125 216.375 C 177.609375 216.078125 176.910156 215.746094 176.222656 215.378906 C 175.535156 215.011719 174.871094 214.613281 174.222656 214.183594 C 173.574219 213.75 172.949219 213.289062 172.347656 212.792969 C 171.746094 212.300781 171.171875 211.78125 170.621094 211.230469 C 170.070312 210.679688 169.550781 210.105469 169.054688 209.503906 C 168.5625 208.902344 168.097656 208.28125 167.667969 207.632812 C 167.234375 206.988281 166.835938 206.320312 166.46875 205.636719 C 166.101562 204.949219 165.769531 204.25 165.472656 203.53125 C 165.171875 202.8125 164.910156 202.082031 164.6875 201.339844 C 164.460938 200.59375 164.269531 199.839844 164.121094 199.078125 C 163.96875 198.316406 163.855469 197.546875 163.777344 196.773438 C 163.703125 196 163.664062 195.226562 163.664062 194.449219 C 163.664062 193.671875 163.703125 192.894531 163.777344 192.121094 C 163.855469 191.347656 163.96875 190.582031 164.121094 189.820312 C 164.269531 189.054688 164.460938 188.304688 164.6875 187.558594 C 164.910156 186.816406 165.175781 186.085938 165.472656 185.367188 C 165.769531 184.648438 166.101562 183.945312 166.46875 183.261719 C 166.835938 182.574219 167.234375 181.910156 167.667969 181.261719 C 168.097656 180.617188 168.5625 179.992188 169.054688 179.390625 C 169.550781 178.792969 170.070312 178.214844 170.621094 177.667969 C 171.171875 177.117188 171.746094 176.597656 172.347656 176.101562 C 172.949219 175.609375 173.574219 175.148438 174.222656 174.714844 C 174.871094 174.285156 175.535156 173.882812 176.222656 173.519531 C 176.910156 173.152344 177.609375 172.820312 178.328125 172.523438 C 179.046875 172.222656 179.78125 171.964844 180.523438 171.738281 C 181.269531 171.511719 182.023438 171.324219 182.785156 171.171875 C 183.550781 171.019531 184.320312 170.90625 185.09375 170.828125 C 185.867188 170.753906 186.644531 170.714844 187.421875 170.714844 C 188.199219 170.714844 188.976562 170.753906 189.75 170.828125 C 190.523438 170.90625 191.292969 171.019531 192.058594 171.171875 C 192.820312 171.324219 193.574219 171.511719 194.320312 171.738281 C 195.0625 171.964844 195.796875 172.222656 196.515625 172.523438 C 197.234375 172.820312 197.9375 173.152344 198.621094 173.519531 C 199.308594 173.882812 199.976562 174.285156 200.621094 174.714844 C 201.269531 175.148438 201.894531 175.609375 202.496094 176.101562 C 203.097656 176.597656 203.671875 177.117188 204.222656 177.667969 C 204.773438 178.214844 205.292969 178.792969 205.789062 179.390625 C 206.28125 179.992188 206.746094 180.617188 207.175781 181.261719 C 207.609375 181.910156 208.007812 182.574219 208.375 183.261719 C 208.742188 183.945312 209.074219 184.648438 209.371094 185.367188 C 209.671875 186.085938 209.933594 186.816406 210.15625 187.558594 C 210.382812 188.304688 210.574219 189.054688 210.722656 189.820312 C 210.875 190.582031 210.992188 191.347656 211.066406 192.121094 C 211.144531 192.894531 211.179688 193.671875 211.179688 194.449219 Z M 211.179688 194.449219 " fill-opacity="1" fill-rule="nonzero"/><g clip-path="url(#4723018d87)"><path fill="#8e793e" d="M 165.148438 120.28125 L 151.5625 135.117188 L 128.023438 135.117188 C 119.820312 135.117188 113.175781 141.753906 113.175781 149.949219 L 113.175781 238.949219 C 113.175781 247.144531 119.820312 253.78125 128.023438 253.78125 L 246.820312 253.78125 C 255.023438 253.78125 261.667969 247.144531 261.667969 238.949219 L 261.667969 149.949219 C 261.667969 141.753906 255.023438 135.117188 246.820312 135.117188 L 223.285156 135.117188 L 209.695312 120.28125 Z M 187.421875 231.53125 C 166.929688 231.53125 150.296875 214.917969 150.296875 194.449219 C 150.296875 173.980469 166.929688 157.367188 187.421875 157.367188 C 207.914062 157.367188 224.546875 173.980469 224.546875 194.449219 C 224.546875 214.917969 207.914062 231.53125 187.421875 231.53125 Z M 187.421875 231.53125 " fill-opacity="1" fill-rule="nonzero"/></g><g fill="#8e793e" fill-opacity="1"><g transform="translate(74.658112, 141.666136)"><g><path d="M -17.796875 -24.6875 C -16.785156 -26.820312 -15.550781 -28.507812 -14.09375 -29.75 C -12.632812 -30.988281 -11.050781 -31.722656 -9.34375 -31.953125 C -7.632812 -32.179688 -5.882812 -31.867188 -4.09375 -31.015625 C -2.320312 -30.179688 -0.976562 -29.023438 -0.0625 -27.546875 C 0.851562 -26.078125 1.285156 -24.390625 1.234375 -22.484375 C 1.191406 -20.578125 0.664062 -18.554688 -0.34375 -16.421875 L -2.640625 -11.578125 L 4 -8.4375 L 1.34375 -2.859375 L -22.75 -14.265625 Z M -5.046875 -18.28125 C -4.242188 -19.945312 -4 -21.390625 -4.3125 -22.609375 C -4.625 -23.828125 -5.441406 -24.75 -6.765625 -25.375 C -8.128906 -26.019531 -9.375 -26.070312 -10.5 -25.53125 C -11.632812 -25 -12.601562 -23.898438 -13.40625 -22.234375 L -15.546875 -17.6875 L -7.1875 -13.734375 Z M -5.046875 -18.28125 "/></g></g></g><g fill="#8e793e" fill-opacity="1"><g transform="translate(85.072378, 118.81751)"><g><path d="M 8.171875 -19.875 L 0.59375 -10.09375 L 3.671875 -4.734375 L -0.203125 0.265625 L -14 -25.4375 L -10.265625 -30.25 L 18.109375 -23.34375 L 14.140625 -18.234375 Z M 3.28125 -21.1875 L -7.375 -24.125 L -1.90625 -14.515625 Z M 3.28125 -21.1875 "/></g></g></g><g fill="#8e793e" fill-opacity="1"><g transform="translate(101.047433, 97.81355)"><g><path d="M 15.484375 -12.875 L 6.78125 -15.296875 L 6.5625 -15.109375 L 2.421875 -11.671875 L 7.171875 -5.96875 L 2.421875 -2.015625 L -14.625 -22.515625 L -5.734375 -29.90625 C -3.929688 -31.40625 -2.109375 -32.410156 -0.265625 -32.921875 C 1.578125 -33.429688 3.320312 -33.425781 4.96875 -32.90625 C 6.625 -32.394531 8.082031 -31.378906 9.34375 -29.859375 C 10.601562 -28.335938 11.328125 -26.71875 11.515625 -25 C 11.710938 -23.28125 11.378906 -21.570312 10.515625 -19.875 L 20.578125 -17.109375 Z M 4.546875 -25.875 C 3.585938 -27.03125 2.476562 -27.601562 1.21875 -27.59375 C -0.03125 -27.582031 -1.363281 -26.988281 -2.78125 -25.8125 L -6.65625 -22.59375 L -0.71875 -15.453125 L 3.15625 -18.671875 C 4.570312 -19.847656 5.390625 -21.054688 5.609375 -22.296875 C 5.835938 -23.546875 5.484375 -24.738281 4.546875 -25.875 Z M 4.546875 -25.875 "/></g></g></g><g fill="#8e793e" fill-opacity="1"><g transform="translate(120.589429, 81.525042)"><g><path d="M -2.6875 -23.140625 L -10.1875 -19.078125 L -12.578125 -23.5 L 7.828125 -34.578125 L 10.21875 -30.15625 L 2.71875 -26.078125 L 13.046875 -7.078125 L 7.640625 -4.140625 Z M -2.6875 -23.140625 "/></g></g></g><g fill="#8e793e" fill-opacity="1"><g transform="translate(138.989883, 71.152945)"><g><path d="M 12.3125 -13.84375 L 15.1875 -4.859375 L 9.3125 -2.984375 L 6.40625 -12.046875 L -8.625 -25.234375 L -2.390625 -27.21875 L 8 -18.109375 L 11.15625 -31.5625 L 16.9375 -33.421875 Z M 12.3125 -13.84375 "/></g></g></g><g fill="#8e793e" fill-opacity="1"><g transform="translate(161.8511, 64.242586)"><g/></g></g><g fill="#8e793e" fill-opacity="1"><g transform="translate(170.481389, 61.965791)"><g><path d="M 20.140625 -0.46875 L 14.828125 -7.765625 L 14.53125 -7.765625 L 9.15625 -7.640625 L 9.328125 -0.21875 L 3.15625 -0.078125 L 2.53125 -26.734375 L 14.078125 -27 C 16.429688 -27.050781 18.488281 -26.703125 20.25 -25.953125 C 22.007812 -25.210938 23.375 -24.128906 24.34375 -22.703125 C 25.320312 -21.273438 25.835938 -19.570312 25.890625 -17.59375 C 25.929688 -15.613281 25.492188 -13.894531 24.578125 -12.4375 C 23.660156 -10.976562 22.332031 -9.847656 20.59375 -9.046875 L 26.765625 -0.625 Z M 19.640625 -17.453125 C 19.597656 -18.953125 19.085938 -20.085938 18.109375 -20.859375 C 17.128906 -21.640625 15.710938 -22.003906 13.859375 -21.953125 L 8.828125 -21.84375 L 9.046875 -12.5625 L 14.078125 -12.671875 C 15.929688 -12.722656 17.328125 -13.164062 18.265625 -14 C 19.210938 -14.832031 19.671875 -15.984375 19.640625 -17.453125 Z M 19.640625 -17.453125 "/></g></g></g><g fill="#8e793e" fill-opacity="1"><g transform="translate(195.570983, 60.809261)"><g><path d="M 15.625 3.71875 C 12.925781 3.15625 10.609375 2.0625 8.671875 0.4375 C 6.742188 -1.175781 5.378906 -3.132812 4.578125 -5.4375 C 3.773438 -7.75 3.640625 -10.1875 4.171875 -12.75 C 4.703125 -15.3125 5.796875 -17.484375 7.453125 -19.265625 C 9.109375 -21.054688 11.144531 -22.304688 13.5625 -23.015625 C 15.988281 -23.734375 18.550781 -23.8125 21.25 -23.25 C 23.96875 -22.6875 26.285156 -21.59375 28.203125 -19.96875 C 30.117188 -18.351562 31.484375 -16.394531 32.296875 -14.09375 C 33.117188 -11.789062 33.265625 -9.359375 32.734375 -6.796875 C 32.203125 -4.234375 31.097656 -2.054688 29.421875 -0.265625 C 27.753906 1.523438 25.71875 2.773438 23.3125 3.484375 C 20.90625 4.203125 18.34375 4.28125 15.625 3.71875 Z M 16.703125 -1.421875 C 18.253906 -1.097656 19.722656 -1.160156 21.109375 -1.609375 C 22.492188 -2.066406 23.671875 -2.851562 24.640625 -3.96875 C 25.617188 -5.082031 26.273438 -6.445312 26.609375 -8.0625 C 26.941406 -9.675781 26.882812 -11.191406 26.4375 -12.609375 C 26 -14.023438 25.234375 -15.21875 24.140625 -16.1875 C 23.054688 -17.15625 21.738281 -17.800781 20.1875 -18.125 C 18.65625 -18.445312 17.191406 -18.378906 15.796875 -17.921875 C 14.410156 -17.472656 13.226562 -16.6875 12.25 -15.5625 C 11.28125 -14.445312 10.628906 -13.082031 10.296875 -11.46875 C 9.960938 -9.851562 10.015625 -8.335938 10.453125 -6.921875 C 10.898438 -5.515625 11.671875 -4.328125 12.765625 -3.359375 C 13.859375 -2.390625 15.171875 -1.742188 16.703125 -1.421875 Z M 16.703125 -1.421875 "/></g></g></g><g fill="#8e793e" fill-opacity="1"><g transform="translate(224.154994, 66.589364)"><g><path d="M 21.1875 3.640625 L 9.984375 -1.625 L 5.421875 2.546875 L -0.3125 -0.140625 L 21.765625 -19.21875 L 27.28125 -16.640625 L 26.75 12.5625 L 20.890625 9.8125 Z M 21.40625 -1.4375 L 21.921875 -12.453125 L 13.75 -5.015625 Z M 21.40625 -1.4375 "/></g></g></g><g fill="#8e793e" fill-opacity="1"><g transform="translate(248.12586, 76.923092)"><g><path d="M 21.171875 17.421875 L 31.3125 5.03125 L 16.859375 10.234375 L 14.71875 8.46875 L 16.859375 -6.40625 L 6.90625 5.6875 L 2.4375 2 L 19.375 -18.578125 L 23.328125 -15.328125 L 20.484375 3.78125 L 38.609375 -2.75 L 42.515625 0.46875 L 25.640625 21.09375 Z M 21.171875 17.421875 "/></g></g></g><g fill="#8e793e" fill-opacity="1"><g transform="translate(273.670112, 98.299287)"><g><path d="M 18.296875 16.015625 L 14.34375 19 L 1.90625 2.515625 L 23.1875 -13.546875 L 35.3125 2.53125 L 31.359375 5.515625 L 22.921875 -5.65625 L 18.296875 -2.171875 L 25.765625 7.703125 L 21.9375 10.59375 L 14.46875 0.71875 L 9.546875 4.4375 Z M 18.296875 16.015625 "/></g></g></g><g fill="#8e793e" fill-opacity="1"><g transform="translate(287.807312, 116.379486)"><g><path d="M 8.625 18.203125 L 13.125 10.359375 L 13 10.09375 L 10.703125 5.234375 L 4 8.421875 L 1.359375 2.859375 L 25.4375 -8.5625 L 30.375 1.859375 C 31.382812 3.984375 31.90625 6 31.9375 7.90625 C 31.976562 9.820312 31.546875 11.515625 30.640625 12.984375 C 29.742188 14.460938 28.398438 15.625 26.609375 16.46875 C 24.816406 17.320312 23.066406 17.625 21.359375 17.375 C 19.648438 17.125 18.078125 16.375 16.640625 15.125 L 11.46875 24.1875 Z M 23.921875 10.8125 C 25.273438 10.175781 26.109375 9.25 26.421875 8.03125 C 26.734375 6.820312 26.492188 5.378906 25.703125 3.703125 L 23.546875 -0.84375 L 15.15625 3.140625 L 17.3125 7.6875 C 18.101562 9.363281 19.070312 10.460938 20.21875 10.984375 C 21.363281 11.503906 22.597656 11.445312 23.921875 10.8125 Z M 23.921875 10.8125 "/></g></g></g><g fill="#8e793e" fill-opacity="1"><g transform="translate(33.858364, 193.062128)"><g><path d="M 28.8125 9.90625 C 29.21875 12.238281 29.175781 14.328125 28.6875 16.171875 C 28.207031 18.023438 27.335938 19.535156 26.078125 20.703125 C 24.816406 21.878906 23.207031 22.632812 21.25 22.96875 C 19.332031 23.300781 17.570312 23.132812 15.96875 22.46875 C 14.363281 21.800781 13.03125 20.675781 11.96875 19.09375 C 10.914062 17.507812 10.1875 15.550781 9.78125 13.21875 L 8.859375 7.921875 L 1.609375 9.1875 L 0.546875 3.109375 L 26.828125 -1.46875 Z M 14.65625 12.015625 C 14.96875 13.847656 15.601562 15.171875 16.5625 15.984375 C 17.519531 16.796875 18.722656 17.070312 20.171875 16.8125 C 21.648438 16.5625 22.695312 15.890625 23.3125 14.796875 C 23.9375 13.710938 24.09375 12.253906 23.78125 10.421875 L 22.921875 5.46875 L 13.796875 7.0625 Z M 14.65625 12.015625 "/></g></g></g><g fill="#8e793e" fill-opacity="1"><g transform="translate(38.438503, 220.295788)"><g><path d="M 34.734375 16.40625 L 9.78125 25.84375 L 7.59375 20.0625 L 17.828125 16.1875 L 13.53125 4.84375 L 3.296875 8.71875 L 1.109375 2.953125 L 26.0625 -6.484375 L 28.25 -0.71875 L 18.40625 3 L 22.703125 14.34375 L 32.546875 10.625 Z M 34.734375 16.40625 "/></g></g></g><g fill="#8e793e" fill-opacity="1"><g transform="translate(49.240356, 249.064022)"><g><path d="M 8.25 13.8125 C 6.757812 11.476562 5.921875 9.050781 5.734375 6.53125 C 5.546875 4.019531 6 1.671875 7.09375 -0.515625 C 8.1875 -2.703125 9.835938 -4.492188 12.046875 -5.890625 C 14.253906 -7.296875 16.578125 -8.03125 19.015625 -8.09375 C 21.460938 -8.15625 23.785156 -7.566406 25.984375 -6.328125 C 28.179688 -5.097656 30.023438 -3.316406 31.515625 -0.984375 C 33.003906 1.359375 33.835938 3.78125 34.015625 6.28125 C 34.191406 8.789062 33.734375 11.144531 32.640625 13.34375 C 31.554688 15.539062 29.910156 17.34375 27.703125 18.75 C 25.492188 20.144531 23.164062 20.867188 20.71875 20.921875 C 18.269531 20.972656 15.953125 20.382812 13.765625 19.15625 C 11.578125 17.9375 9.738281 16.15625 8.25 13.8125 Z M 12.671875 10.984375 C 13.515625 12.316406 14.582031 13.328125 15.875 14.015625 C 17.164062 14.703125 18.550781 15 20.03125 14.90625 C 21.519531 14.820312 22.957031 14.34375 24.34375 13.46875 C 25.738281 12.570312 26.785156 11.472656 27.484375 10.171875 C 28.191406 8.867188 28.507812 7.488281 28.4375 6.03125 C 28.375 4.570312 27.921875 3.175781 27.078125 1.84375 C 26.234375 0.519531 25.160156 -0.484375 23.859375 -1.171875 C 22.566406 -1.859375 21.179688 -2.160156 19.703125 -2.078125 C 18.222656 -1.992188 16.785156 -1.503906 15.390625 -0.609375 C 14.003906 0.265625 12.957031 1.351562 12.25 2.65625 C 11.539062 3.96875 11.222656 5.351562 11.296875 6.8125 C 11.367188 8.269531 11.828125 9.660156 12.671875 10.984375 Z M 12.671875 10.984375 "/></g></g></g><g fill="#8e793e" fill-opacity="1"><g transform="translate(66.522046, 275.612051)"><g><path d="M 21.796875 -8.28125 L 16.015625 -14.5625 L 19.71875 -17.96875 L 35.453125 -0.875 L 31.75 2.53125 L 25.96875 -3.75 L 10.0625 10.921875 L 5.890625 6.390625 Z M 21.796875 -8.28125 "/></g></g></g><g fill="#8e793e" fill-opacity="1"><g transform="translate(81.890081, 292.917612)"><g><path d="M 12.5625 10.0625 C 10.34375 8.382812 8.707031 6.398438 7.65625 4.109375 C 6.601562 1.828125 6.207031 -0.523438 6.46875 -2.953125 C 6.726562 -5.390625 7.648438 -7.648438 9.234375 -9.734375 C 10.804688 -11.816406 12.722656 -13.316406 14.984375 -14.234375 C 17.253906 -15.148438 19.632812 -15.410156 22.125 -15.015625 C 24.613281 -14.628906 26.96875 -13.597656 29.1875 -11.921875 C 31.394531 -10.253906 33.019531 -8.28125 34.0625 -6 C 35.101562 -3.71875 35.492188 -1.359375 35.234375 1.078125 C 34.984375 3.523438 34.070312 5.789062 32.5 7.875 C 30.914062 9.957031 28.988281 11.453125 26.71875 12.359375 C 24.445312 13.265625 22.070312 13.523438 19.59375 13.140625 C 17.113281 12.753906 14.769531 11.726562 12.5625 10.0625 Z M 15.71875 5.875 C 16.96875 6.820312 18.316406 7.390625 19.765625 7.578125 C 21.222656 7.765625 22.628906 7.5625 23.984375 6.96875 C 25.335938 6.375 26.515625 5.421875 27.515625 4.109375 C 28.515625 2.785156 29.113281 1.390625 29.3125 -0.078125 C 29.519531 -1.546875 29.332031 -2.953125 28.75 -4.296875 C 28.175781 -5.640625 27.265625 -6.785156 26.015625 -7.734375 C 24.753906 -8.679688 23.398438 -9.25 21.953125 -9.4375 C 20.503906 -9.625 19.101562 -9.421875 17.75 -8.828125 C 16.394531 -8.234375 15.21875 -7.273438 14.21875 -5.953125 C 13.21875 -4.640625 12.613281 -3.25 12.40625 -1.78125 C 12.207031 -0.3125 12.394531 1.09375 12.96875 2.4375 C 13.539062 3.78125 14.457031 4.925781 15.71875 5.875 Z M 15.71875 5.875 "/></g></g></g><g fill="#8e793e" fill-opacity="1"><g transform="translate(107.482347, 312.111602)"><g><path d="M 26.5 -2.609375 C 27.664062 -1.515625 28.394531 -0.269531 28.6875 1.125 C 28.976562 2.519531 28.765625 3.957031 28.046875 5.4375 C 27.035156 7.550781 25.4375 8.773438 23.25 9.109375 C 21.0625 9.453125 18.398438 8.867188 15.265625 7.359375 L 2.84375 1.375 L 14.421875 -22.65625 L 26.15625 -17 C 29.082031 -15.59375 31.054688 -13.945312 32.078125 -12.0625 C 33.109375 -10.1875 33.160156 -8.289062 32.234375 -6.375 C 31.679688 -5.207031 30.90625 -4.296875 29.90625 -3.640625 C 28.90625 -2.992188 27.769531 -2.648438 26.5 -2.609375 Z M 17.9375 -15.796875 L 15.203125 -10.140625 L 20.71875 -7.46875 C 22.09375 -6.8125 23.253906 -6.550781 24.203125 -6.6875 C 25.148438 -6.820312 25.847656 -7.359375 26.296875 -8.296875 C 26.742188 -9.234375 26.722656 -10.109375 26.234375 -10.921875 C 25.753906 -11.734375 24.828125 -12.46875 23.453125 -13.125 Z M 16.875 2.984375 C 18.34375 3.679688 19.5625 3.96875 20.53125 3.84375 C 21.507812 3.726562 22.238281 3.164062 22.71875 2.15625 C 23.675781 0.164062 22.679688 -1.535156 19.734375 -2.953125 L 13.25 -6.09375 L 10.390625 -0.15625 Z M 16.875 2.984375 "/></g></g></g><g fill="#8e793e" fill-opacity="1"><g transform="translate(133.544115, 324.858232)"><g><path d="M 15.46875 4.421875 C 12.78125 3.734375 10.503906 2.535156 8.640625 0.828125 C 6.785156 -0.878906 5.507812 -2.898438 4.8125 -5.234375 C 4.113281 -7.566406 4.09375 -10 4.75 -12.53125 C 5.394531 -15.0625 6.582031 -17.191406 8.3125 -18.921875 C 10.050781 -20.648438 12.144531 -21.816406 14.59375 -22.421875 C 17.050781 -23.023438 19.625 -22.984375 22.3125 -22.296875 C 25 -21.609375 27.257812 -20.410156 29.09375 -18.703125 C 30.9375 -17.003906 32.210938 -14.976562 32.921875 -12.625 C 33.640625 -10.269531 33.675781 -7.828125 33.03125 -5.296875 C 32.375 -2.765625 31.171875 -0.644531 29.421875 1.0625 C 27.671875 2.769531 25.578125 3.925781 23.140625 4.53125 C 20.710938 5.144531 18.15625 5.109375 15.46875 4.421875 Z M 16.765625 -0.65625 C 18.285156 -0.257812 19.75 -0.253906 21.15625 -0.640625 C 22.570312 -1.035156 23.789062 -1.769531 24.8125 -2.84375 C 25.832031 -3.914062 26.550781 -5.25 26.96875 -6.84375 C 27.375 -8.445312 27.382812 -9.96875 27 -11.40625 C 26.625 -12.84375 25.910156 -14.066406 24.859375 -15.078125 C 23.804688 -16.085938 22.519531 -16.789062 21 -17.1875 C 19.476562 -17.570312 18.007812 -17.570312 16.59375 -17.1875 C 15.1875 -16.8125 13.972656 -16.082031 12.953125 -15 C 11.929688 -13.925781 11.21875 -12.585938 10.8125 -10.984375 C 10.394531 -9.390625 10.375 -7.875 10.75 -6.4375 C 11.132812 -5.007812 11.851562 -3.785156 12.90625 -2.765625 C 13.957031 -1.742188 15.242188 -1.039062 16.765625 -0.65625 Z M 16.765625 -0.65625 "/></g></g></g><g fill="#8e793e" fill-opacity="1"><g transform="translate(164.703855, 332.836159)"><g><path d="M 16.046875 1.125 C 13.273438 1.007812 10.800781 0.3125 8.625 -0.96875 C 6.457031 -2.257812 4.789062 -3.972656 3.625 -6.109375 C 2.457031 -8.253906 1.925781 -10.632812 2.03125 -13.25 C 2.144531 -15.863281 2.867188 -18.191406 4.203125 -20.234375 C 5.546875 -22.285156 7.351562 -23.859375 9.625 -24.953125 C 11.894531 -26.046875 14.414062 -26.535156 17.1875 -26.421875 C 19.957031 -26.304688 22.421875 -25.609375 24.578125 -24.328125 C 26.734375 -23.054688 28.398438 -21.34375 29.578125 -19.1875 C 30.765625 -17.039062 31.300781 -14.660156 31.1875 -12.046875 C 31.082031 -9.429688 30.351562 -7.101562 29 -5.0625 C 27.644531 -3.03125 25.835938 -1.460938 23.578125 -0.359375 C 21.328125 0.742188 18.816406 1.238281 16.046875 1.125 Z M 16.265625 -4.125 C 17.835938 -4.0625 19.269531 -4.363281 20.5625 -5.03125 C 21.863281 -5.707031 22.90625 -6.675781 23.6875 -7.9375 C 24.46875 -9.195312 24.890625 -10.648438 24.953125 -12.296875 C 25.023438 -13.953125 24.722656 -15.441406 24.046875 -16.765625 C 23.378906 -18.085938 22.425781 -19.132812 21.1875 -19.90625 C 19.945312 -20.6875 18.539062 -21.109375 16.96875 -21.171875 C 15.394531 -21.242188 13.957031 -20.941406 12.65625 -20.265625 C 11.351562 -19.597656 10.316406 -18.632812 9.546875 -17.375 C 8.773438 -16.113281 8.351562 -14.65625 8.28125 -13 C 8.21875 -11.351562 8.515625 -9.867188 9.171875 -8.546875 C 9.835938 -7.222656 10.789062 -6.171875 12.03125 -5.390625 C 13.28125 -4.617188 14.691406 -4.195312 16.265625 -4.125 Z M 16.265625 -4.125 "/></g></g></g><g fill="#8e793e" fill-opacity="1"><g transform="translate(196.369274, 333.805998)"><g><path d="M 5.65625 -22.625 L -2.796875 -21.453125 L -3.484375 -26.4375 L 19.53125 -29.625 L 20.21875 -24.640625 L 11.765625 -23.46875 L 14.71875 -2.03125 L 8.609375 -1.1875 Z M 5.65625 -22.625 "/></g></g></g><g fill="#8e793e" fill-opacity="1"><g transform="translate(219.262052, 331.008096)"><g><path d="M 18.140625 -33.828125 L 26.296875 -8.4375 L 20.421875 -6.5625 L 17.078125 -16.96875 L 5.53125 -13.25 L 8.875 -2.84375 L 3 -0.96875 L -5.15625 -26.359375 L 0.71875 -28.234375 L 3.9375 -18.21875 L 15.484375 -21.9375 L 12.265625 -31.953125 Z M 18.140625 -33.828125 "/></g></g></g><g fill="#8e793e" fill-opacity="1"><g transform="translate(247.254044, 321.428017)"><g/></g></g><g fill="#8e793e" fill-opacity="1"><g transform="translate(256.116483, 317.916754)"><g><path d="M 17.109375 -10.640625 L 8.828125 -14.234375 L 8.5625 -14.0625 L 4 -11.21875 L 7.921875 -4.921875 L 2.6875 -1.671875 L -11.40625 -24.3125 L -1.609375 -30.40625 C 0.398438 -31.65625 2.351562 -32.398438 4.25 -32.640625 C 6.144531 -32.890625 7.867188 -32.648438 9.421875 -31.921875 C 10.984375 -31.203125 12.289062 -30 13.34375 -28.3125 C 14.382812 -26.632812 14.878906 -24.929688 14.828125 -23.203125 C 14.773438 -21.484375 14.207031 -19.835938 13.125 -18.265625 L 22.734375 -14.140625 Z M 8.03125 -25 C 7.238281 -26.269531 6.21875 -26.992188 4.96875 -27.171875 C 3.726562 -27.347656 2.320312 -26.941406 0.75 -25.953125 L -3.515625 -23.296875 L 1.40625 -15.40625 L 5.671875 -18.0625 C 7.242188 -19.050781 8.222656 -20.140625 8.609375 -21.328125 C 8.992188 -22.523438 8.800781 -23.75 8.03125 -25 Z M 8.03125 -25 "/></g></g></g><g fill="#8e793e" fill-opacity="1"><g transform="translate(279.386536, 303.372592)"><g><path d="M 14.484375 -19.53125 L 17.78125 -15.828125 L 2.359375 -2.09375 L -15.375 -22.015625 L -0.328125 -35.421875 L 2.96875 -31.71875 L -7.5 -22.40625 L -3.65625 -18.078125 L 5.59375 -26.296875 L 8.796875 -22.71875 L -0.453125 -14.5 L 3.640625 -9.890625 Z M 14.484375 -19.53125 "/></g></g></g><g fill="#8e793e" fill-opacity="1"><g transform="translate(298.371769, 286.832725)"><g><path d="M -4.03125 -38.1875 L 17 -21.78125 L 13.875 -17.78125 L -7.078125 -17.25 L 5.6875 -7.296875 L 1.9375 -2.484375 L -19.09375 -18.890625 L -15.953125 -22.921875 L 4.984375 -23.40625 L -7.796875 -33.375 Z M -4.03125 -38.1875 "/></g></g></g><g fill="#8e793e" fill-opacity="1"><g transform="translate(316.766328, 262.827402)"><g><path d="M -15.03125 -17.84375 L -19.03125 -10.3125 L -23.46875 -12.671875 L -12.5625 -33.1875 L -8.125 -30.828125 L -12.125 -23.296875 L 6.984375 -13.125 L 4.078125 -7.671875 Z M -15.03125 -17.84375 "/></g></g></g><g fill="#8e793e" fill-opacity="1"><g transform="translate(327.804631, 242.677545)"><g><path d="M 1.125 -21.46875 L -2.78125 -9.734375 L 1.890625 -5.671875 L -0.109375 0.328125 L -21.671875 -19.375 L -19.75 -25.15625 L 9.328125 -28.046875 L 7.28125 -21.90625 Z M -3.953125 -21.109375 L -14.96875 -20.296875 L -6.609375 -13.078125 Z M -3.953125 -21.109375 "/></g></g></g><g fill="#8e793e" fill-opacity="1"><g transform="translate(336.623835, 215.538128)"><g><path d="M -25.859375 -7.25 L -24.90625 -13.34375 L -3.53125 -10 L -1.453125 -23.21875 L 3.515625 -22.4375 L 0.484375 -3.125 Z M -25.859375 -7.25 "/></g></g></g></svg>